<mxfile host="app.diagrams.net" modified="2021-02-08T17:28:23.297Z" agent="5.0 (Windows)" etag="ynwYTHUgIDYp5hUmRy-o" version="14.3.0" type="github">
  <diagram id="xSpGG2b0C0ERiAfWFSVa" name="Page-1">
    <mxGraphModel dx="868" dy="451" grid="1" gridSize="10" guides="1" tooltips="1" connect="1" arrows="1" fold="1" page="1" pageScale="1" pageWidth="850" pageHeight="1100" math="0" shadow="0">
      <root>
        <mxCell id="0" />
        <mxCell id="1" parent="0" />
        <mxCell id="CAOIDfmYwT6vQX1vKsMd-1" value="" style="strokeWidth=1;shadow=0;dashed=0;align=center;html=1;shape=mxgraph.mockup.forms.rrect;rSize=0;strokeColor=#999999;fillColor=#ffffff;" vertex="1" parent="1">
          <mxGeometry x="260" y="80" width="250" height="510" as="geometry" />
        </mxCell>
        <mxCell id="CAOIDfmYwT6vQX1vKsMd-2" value="Sign Up" style="strokeWidth=1;shadow=0;dashed=0;align=center;html=1;shape=mxgraph.mockup.forms.anchor;fontSize=12;fontColor=#666666;align=left;resizeWidth=1;spacingLeft=0;" vertex="1" parent="CAOIDfmYwT6vQX1vKsMd-1">
          <mxGeometry width="124.99999999999999" height="20" relative="1" as="geometry">
            <mxPoint x="10" y="10" as="offset" />
          </mxGeometry>
        </mxCell>
        <mxCell id="CAOIDfmYwT6vQX1vKsMd-3" value="" style="shape=line;strokeColor=#ddeeff;strokeWidth=2;html=1;resizeWidth=1;" vertex="1" parent="CAOIDfmYwT6vQX1vKsMd-1">
          <mxGeometry width="225" height="10" relative="1" as="geometry">
            <mxPoint x="10" y="30" as="offset" />
          </mxGeometry>
        </mxCell>
        <mxCell id="CAOIDfmYwT6vQX1vKsMd-4" value="First Name:" style="strokeWidth=1;shadow=0;dashed=0;align=center;html=1;shape=mxgraph.mockup.forms.anchor;fontSize=12;fontColor=#666666;align=left;resizeWidth=1;spacingLeft=0;" vertex="1" parent="CAOIDfmYwT6vQX1vKsMd-1">
          <mxGeometry width="124.99999999999999" height="20" relative="1" as="geometry">
            <mxPoint x="10" y="40" as="offset" />
          </mxGeometry>
        </mxCell>
        <mxCell id="CAOIDfmYwT6vQX1vKsMd-5" value="John" style="strokeWidth=1;shadow=0;dashed=0;align=center;html=1;shape=mxgraph.mockup.forms.rrect;rSize=0;strokeColor=#999999;fontColor=#666666;align=left;spacingLeft=5;resizeWidth=1;" vertex="1" parent="CAOIDfmYwT6vQX1vKsMd-1">
          <mxGeometry width="187.5" height="25" relative="1" as="geometry">
            <mxPoint x="10" y="60" as="offset" />
          </mxGeometry>
        </mxCell>
        <mxCell id="CAOIDfmYwT6vQX1vKsMd-6" value="Last Name:" style="strokeWidth=1;shadow=0;dashed=0;align=center;html=1;shape=mxgraph.mockup.forms.anchor;fontSize=12;fontColor=#666666;align=left;resizeWidth=1;spacingLeft=0;" vertex="1" parent="CAOIDfmYwT6vQX1vKsMd-1">
          <mxGeometry width="124.99999999999999" height="20" relative="1" as="geometry">
            <mxPoint x="10" y="95" as="offset" />
          </mxGeometry>
        </mxCell>
        <mxCell id="CAOIDfmYwT6vQX1vKsMd-7" value="Doe" style="strokeWidth=1;shadow=0;dashed=0;align=center;html=1;shape=mxgraph.mockup.forms.rrect;rSize=0;strokeColor=#999999;fontColor=#666666;align=left;spacingLeft=5;resizeWidth=1;" vertex="1" parent="CAOIDfmYwT6vQX1vKsMd-1">
          <mxGeometry width="187.5" height="25" relative="1" as="geometry">
            <mxPoint x="10" y="115" as="offset" />
          </mxGeometry>
        </mxCell>
        <mxCell id="CAOIDfmYwT6vQX1vKsMd-12" value="SIGN UP" style="strokeWidth=1;shadow=0;dashed=0;align=center;html=1;shape=mxgraph.mockup.forms.rrect;rSize=5;strokeColor=none;fontColor=#ffffff;fillColor=#66bbff;fontSize=16;fontStyle=1;" vertex="1" parent="CAOIDfmYwT6vQX1vKsMd-1">
          <mxGeometry y="1" width="80" height="30" relative="1" as="geometry">
            <mxPoint x="78.62" y="-35" as="offset" />
          </mxGeometry>
        </mxCell>
        <mxCell id="CAOIDfmYwT6vQX1vKsMd-15" value="example@example.com" style="strokeWidth=1;shadow=0;dashed=0;align=center;html=1;shape=mxgraph.mockup.forms.rrect;rSize=0;strokeColor=#999999;fontColor=#666666;align=left;spacingLeft=5;resizeWidth=1;" vertex="1" parent="CAOIDfmYwT6vQX1vKsMd-1">
          <mxGeometry x="8.620689655172413" y="168.56521739130434" width="187.5" height="27.717391304347828" as="geometry" />
        </mxCell>
        <mxCell id="CAOIDfmYwT6vQX1vKsMd-16" value="+123456789" style="strokeWidth=1;shadow=0;dashed=0;align=center;html=1;shape=mxgraph.mockup.forms.rrect;rSize=0;strokeColor=#999999;fontColor=#666666;align=left;spacingLeft=5;resizeWidth=1;" vertex="1" parent="CAOIDfmYwT6vQX1vKsMd-1">
          <mxGeometry x="8.620689655172413" y="227.17391304347825" width="187.5" height="27.717391304347828" as="geometry" />
        </mxCell>
        <mxCell id="CAOIDfmYwT6vQX1vKsMd-19" value="Email:" style="strokeWidth=1;shadow=0;dashed=0;align=center;html=1;shape=mxgraph.mockup.forms.anchor;fontSize=12;fontColor=#666666;align=left;resizeWidth=1;spacingLeft=0;" vertex="1" parent="CAOIDfmYwT6vQX1vKsMd-1">
          <mxGeometry x="8.620689655172413" y="146.95652173913044" width="124.99999999999999" height="22.17391304347826" as="geometry" />
        </mxCell>
        <mxCell id="CAOIDfmYwT6vQX1vKsMd-20" value="Phone:" style="strokeWidth=1;shadow=0;dashed=0;align=center;html=1;shape=mxgraph.mockup.forms.anchor;fontSize=12;fontColor=#666666;align=left;resizeWidth=1;spacingLeft=0;" vertex="1" parent="CAOIDfmYwT6vQX1vKsMd-1">
          <mxGeometry x="8.620689655172413" y="203.91304347826087" width="124.99999999999999" height="22.17391304347826" as="geometry" />
        </mxCell>
        <mxCell id="CAOIDfmYwT6vQX1vKsMd-21" value="fG2yQ23" style="strokeWidth=1;shadow=0;dashed=0;align=center;html=1;shape=mxgraph.mockup.text.captcha;fontColor=#666666;fontSize=25;strokeColor=#666666;mainText=" vertex="1" parent="CAOIDfmYwT6vQX1vKsMd-1">
          <mxGeometry x="8.619999999999997" y="378.00000000000006" width="150" height="50" as="geometry" />
        </mxCell>
        <mxCell id="CAOIDfmYwT6vQX1vKsMd-22" value="Enter Characters" style="strokeWidth=1;shadow=0;dashed=0;align=center;html=1;shape=mxgraph.mockup.forms.rrect;rSize=0;strokeColor=#999999;fontColor=#666666;align=left;spacingLeft=5;resizeWidth=1;" vertex="1" parent="CAOIDfmYwT6vQX1vKsMd-1">
          <mxGeometry x="8.620689655172441" y="431.0039130434782" width="187.5" height="27.717391304347828" as="geometry" />
        </mxCell>
        <mxCell id="CAOIDfmYwT6vQX1vKsMd-23" value="*********" style="strokeWidth=1;shadow=0;dashed=0;align=center;html=1;shape=mxgraph.mockup.forms.rrect;rSize=0;strokeColor=#999999;fontColor=#666666;align=left;spacingLeft=5;resizeWidth=1;" vertex="1" parent="CAOIDfmYwT6vQX1vKsMd-1">
          <mxGeometry x="8.620689655172441" y="336.00391304347824" width="187.5" height="27.717391304347828" as="geometry" />
        </mxCell>
        <mxCell id="CAOIDfmYwT6vQX1vKsMd-24" value="*********" style="strokeWidth=1;shadow=0;dashed=0;align=center;html=1;shape=mxgraph.mockup.forms.rrect;rSize=0;strokeColor=#999999;fontColor=#666666;align=left;spacingLeft=5;resizeWidth=1;" vertex="1" parent="CAOIDfmYwT6vQX1vKsMd-1">
          <mxGeometry x="8.620689655172441" y="280.00391304347824" width="187.5" height="27.717391304347828" as="geometry" />
        </mxCell>
        <mxCell id="CAOIDfmYwT6vQX1vKsMd-26" value="Password:" style="strokeWidth=1;shadow=0;dashed=0;align=center;html=1;shape=mxgraph.mockup.forms.anchor;fontSize=12;fontColor=#666666;align=left;resizeWidth=1;spacingLeft=0;" vertex="1" parent="CAOIDfmYwT6vQX1vKsMd-1">
          <mxGeometry x="8.620689655172441" y="254.8930434782609" width="124.99999999999999" height="22.17391304347826" as="geometry" />
        </mxCell>
        <mxCell id="CAOIDfmYwT6vQX1vKsMd-18" value="Last Name:" style="strokeWidth=1;shadow=0;dashed=0;align=center;html=1;shape=mxgraph.mockup.forms.anchor;fontSize=12;fontColor=#666666;align=left;resizeWidth=1;spacingLeft=0;" vertex="1" parent="1">
          <mxGeometry x="270" y="175" width="145" height="20" as="geometry" />
        </mxCell>
        <mxCell id="CAOIDfmYwT6vQX1vKsMd-25" value="Phone:" style="strokeWidth=1;shadow=0;dashed=0;align=center;html=1;shape=mxgraph.mockup.forms.anchor;fontSize=12;fontColor=#666666;align=left;resizeWidth=1;spacingLeft=0;" vertex="1" parent="1">
          <mxGeometry x="268.62068965517244" y="283.9130434782609" width="124.99999999999999" height="22.17391304347826" as="geometry" />
        </mxCell>
        <mxCell id="CAOIDfmYwT6vQX1vKsMd-27" value="repeat password:" style="strokeWidth=1;shadow=0;dashed=0;align=center;html=1;shape=mxgraph.mockup.forms.anchor;fontSize=12;fontColor=#666666;align=left;resizeWidth=1;spacingLeft=0;" vertex="1" parent="1">
          <mxGeometry x="268.62068965517244" y="387.8930434782609" width="124.99999999999999" height="22.17391304347826" as="geometry" />
        </mxCell>
      </root>
    </mxGraphModel>
  </diagram>
</mxfile>
